#N canvas 43 87 1875 936 10;
#X obj 835 807 readsf~;
#X msg 862 776 1;
#X obj 412 248 bng 15 250 50 0 empty empty empty 17 7 0 10 -262144
-1 -1;
#X obj 788 763 t b b;
#X obj 509 865 dac~;
#X obj 510 841 easy_comp~;
#X msg 265 338 ratio \$1;
#X msg 195 338 attack \$1;
#X msg 120 338 release \$1;
#X msg 896 776 0;
#X msg 324 338 threshold \$1;
#X msg 120 315 4000;
#X msg 195 315 2000;
#X msg 826 734 open drumloop.wav;
#X text 931 775 Sound off;
#X obj 863 243 bng 15 250 50 0 empty empty empty 17 7 0 10 -262144
-1 -1;
#X msg 688 338 ratio \$1;
#X msg 618 338 attack \$1;
#X msg 543 338 release \$1;
#X msg 747 338 threshold \$1;
#X msg 543 315 4000;
#X msg 618 315 2000;
#X obj 1313 249 bng 15 250 50 0 empty empty empty 17 7 0 10 -262144
-1 -1;
#X msg 1067 338 ratio \$1;
#X msg 997 338 attack \$1;
#X msg 922 338 release \$1;
#X msg 1126 338 threshold \$1;
#X msg 922 315 4000;
#X msg 997 315 2000;
#X msg 1067 315 10;
#X msg 1127 315 0.125;
#X msg 324 315 1;
#X msg 265 315 1;
#X text 452 246 Preset: No compression;
#X text 1352 248 Preset Heavy compression;
#X text 123 17 A simple mono compressor external for Pure Data Enter
threshold values not in dB but in amplitude values between 0 and 1
A value of 0.5 equals -6dB. Attack and release values are entered in
samples.;
#X msg 688 315 4;
#X msg 749 315 0.3;
#X text 895 241 Preset Medium compression;
#X connect 0 0 5 0;
#X connect 0 1 2 0;
#X connect 0 1 15 0;
#X connect 0 1 22 0;
#X connect 1 0 0 0;
#X connect 2 0 3 0;
#X connect 2 0 31 0;
#X connect 2 0 32 0;
#X connect 2 0 12 0;
#X connect 2 0 11 0;
#X connect 3 0 1 0;
#X connect 3 1 13 0;
#X connect 5 0 4 0;
#X connect 5 0 4 1;
#X connect 6 0 5 0;
#X connect 7 0 5 0;
#X connect 8 0 5 0;
#X connect 9 0 0 0;
#X connect 10 0 5 0;
#X connect 11 0 8 0;
#X connect 12 0 7 0;
#X connect 13 0 0 0;
#X connect 15 0 37 0;
#X connect 15 0 36 0;
#X connect 15 0 21 0;
#X connect 15 0 20 0;
#X connect 15 0 3 0;
#X connect 16 0 5 0;
#X connect 17 0 5 0;
#X connect 18 0 5 0;
#X connect 19 0 5 0;
#X connect 20 0 18 0;
#X connect 21 0 17 0;
#X connect 22 0 30 0;
#X connect 22 0 29 0;
#X connect 22 0 28 0;
#X connect 22 0 27 0;
#X connect 22 0 3 0;
#X connect 23 0 5 0;
#X connect 24 0 5 0;
#X connect 25 0 5 0;
#X connect 26 0 5 0;
#X connect 27 0 25 0;
#X connect 28 0 24 0;
#X connect 29 0 23 0;
#X connect 30 0 26 0;
#X connect 31 0 10 0;
#X connect 32 0 6 0;
#X connect 36 0 16 0;
#X connect 37 0 19 0;
